<svg xmlns="http://www.w3.org/2000/svg" viewBox="0 0 100 100" fill="none">
  <style>
    circle, path { fill: #b71c1c; } /* Color primario rojo para RodaYRodar */
    @media (prefers-color-scheme: dark) {
      circle, path { fill: #f44336; } /* Versión más brillante para modo oscuro */
    }
  </style>
  <circle cx="50" cy="50" r="45" stroke-width="5" stroke="currentColor" />
  <path d="M30 30 L70 30 L70 45 C70 52 63 58 55 58 L45 58 L45 70 L30 70 L30 30 Z" />
  <path d="M45 42 L55 42 C58 42 60 44 60 46 C60 48 58 50 55 50 L45 50 L45 42 Z" fill="#fff" />
  <path d="M70 58 A15 15 0 0 0 85 43 L85 75 A15 15 0 0 0 70 58 Z" />
</svg>
